<svg xmlns="http://www.w3.org/2000/svg" xmlns:xlink="http://www.w3.org/1999/xlink" width="593" height="507" viewBox="0 0 593 507">
  <defs>
    <linearGradient id="linear-gradient" y1="0.5" x2="1" y2="0.5" gradientUnits="objectBoundingBox">
      <stop offset="0" stop-color="#8182ee"/>
      <stop offset="1" stop-color="#6060e7"/>
    </linearGradient>
    <linearGradient id="linear-gradient-2" x1="0.334" y1="1.333" x2="0.516" y2="0.405" gradientUnits="objectBoundingBox">
      <stop offset="0" stop-color="#8182ee" stop-opacity="0"/>
      <stop offset="1" stop-color="#6060e7"/>
    </linearGradient>
    <linearGradient id="linear-gradient-3" x1="-0.521" y1="-0.464" x2="1.548" y2="1.878" gradientUnits="objectBoundingBox">
      <stop offset="0" stop-color="#10b7e3"/>
      <stop offset="1" stop-color="#71d3d5"/>
    </linearGradient>
    <linearGradient id="linear-gradient-5" x1="-0.858" y1="-0.793" x2="2.513" y2="2.161" xlink:href="#linear-gradient-3"/>
    <linearGradient id="linear-gradient-6" x1="0" y1="0.5" x2="1" y2="0.5" xlink:href="#linear-gradient-3"/>
    <clipPath id="clip-path">
      <circle id="Ellipse_3" data-name="Ellipse 3" cx="19.51" cy="19.51" r="19.51" fill="none"/>
    </clipPath>
    <linearGradient id="linear-gradient-8" x1="0.5" y1="1.262" x2="0.5" y2="0.427" gradientUnits="objectBoundingBox">
      <stop offset="0" stop-color="#d8e2f6"/>
      <stop offset="0.01" stop-color="#d9e3f6"/>
      <stop offset="0.122" stop-color="#eaeffa"/>
      <stop offset="0.261" stop-color="#f6f8fd"/>
      <stop offset="0.457" stop-color="#fdfdfe"/>
      <stop offset="1" stop-color="#fff"/>
    </linearGradient>
    <linearGradient id="linear-gradient-9" x1="0.5" y1="1.663" x2="0.5" y2="-0.22" xlink:href="#linear-gradient"/>
    <linearGradient id="linear-gradient-10" x1="1.109" y1="-0.815" x2="-0.33" y2="2.293" xlink:href="#linear-gradient-3"/>
    <linearGradient id="linear-gradient-11" x1="0.816" y1="-1.648" x2="0.069" y2="3.428" xlink:href="#linear-gradient-3"/>
    <linearGradient id="linear-gradient-12" x1="-0.157" y1="-0.732" x2="1.298" y2="1.996" xlink:href="#linear-gradient"/>
    <filter id="Ellipse_12" x="210" y="15" width="92" height="95" filterUnits="userSpaceOnUse">
      <feOffset dy="3" input="SourceAlpha"/>
      <feGaussianBlur result="blur"/>
      <feFlood flood-opacity="0.161"/>
      <feComposite operator="in" in2="blur"/>
      <feComposite in="SourceGraphic"/>
    </filter>
    <filter id="Ellipse_13" x="15" y="151" width="74" height="77" filterUnits="userSpaceOnUse">
      <feOffset dy="3" input="SourceAlpha"/>
      <feGaussianBlur result="blur-2"/>
      <feFlood flood-opacity="0.161"/>
      <feComposite operator="in" in2="blur-2"/>
      <feComposite in="SourceGraphic"/>
    </filter>
    <filter id="Ellipse_10" x="74" y="15" width="92" height="95" filterUnits="userSpaceOnUse">
      <feOffset dy="3" input="SourceAlpha"/>
      <feGaussianBlur result="blur-3"/>
      <feFlood flood-opacity="0.161"/>
      <feComposite operator="in" in2="blur-3"/>
      <feComposite in="SourceGraphic"/>
    </filter>
    <filter id="Ellipse_15" x="422" y="131" width="94" height="97" filterUnits="userSpaceOnUse">
      <feOffset dy="3" input="SourceAlpha"/>
      <feGaussianBlur result="blur-4"/>
      <feFlood flood-opacity="0.161"/>
      <feComposite operator="in" in2="blur-4"/>
      <feComposite in="SourceGraphic"/>
    </filter>
    <filter id="Ellipse_11" x="359" y="31" width="80" height="83" filterUnits="userSpaceOnUse">
      <feOffset dy="3" input="SourceAlpha"/>
      <feGaussianBlur result="blur-5"/>
      <feFlood flood-opacity="0.161"/>
      <feComposite operator="in" in2="blur-5"/>
      <feComposite in="SourceGraphic"/>
    </filter>
    <clipPath id="clip-SPRK_default_preset_name_custom_1">
      <rect width="593" height="507"/>
    </clipPath>
  </defs>
  <g id="SPRK_default_preset_name_custom_1" data-name="SPRK_default_preset_name_custom – 1" clip-path="url(#clip-SPRK_default_preset_name_custom_1)">
    <g id="Group_45" data-name="Group 45" transform="translate(44.699 95.858)">
      <g id="Group_1" data-name="Group 1" transform="translate(206.676 405.63)">
        <path id="Path_1" data-name="Path 1" d="M-366.854,703.807h-2.981c-.3.751-.506,1.161-.506,1.161Z" transform="translate(370.341 -703.807)" fill="#75e9d6"/>
      </g>
      <g id="Group_44" data-name="Group 44" transform="translate(0)">
        <g id="Group_18" data-name="Group 18" transform="translate(165.248 83.889)">
          <path id="Path_2" data-name="Path 2" d="M-262.74,605.907h-97.344a9.937,9.937,0,0,1-8.826-5.372l-22.452-43.406a3.6,3.6,0,0,1,3.2-5.25h99.827a9.934,9.934,0,0,1,8.824,5.37l21.312,41.2A5.108,5.108,0,0,1-262.74,605.907Z" transform="translate(395.836 -495.035)" fill="url(#linear-gradient)"/>
          <path id="Path_3" data-name="Path 3" d="M-265.073,609.575h-97.344a9.938,9.938,0,0,1-8.826-5.372l-22.452-43.408a3.6,3.6,0,0,1,3.2-5.25h99.825a9.938,9.938,0,0,1,8.826,5.372l21.312,41.2A5.109,5.109,0,0,1-265.073,609.575Z" transform="translate(394.101 -492.31)" opacity="0.42" fill="url(#linear-gradient-2)"/>
          <path id="Path_4" data-name="Path 4" d="M-318.723,582.429h-46.944a4.743,4.743,0,0,1-4.212-2.565l-10.714-20.714a1.717,1.717,0,0,1,1.526-2.505h47.636a4.742,4.742,0,0,1,4.212,2.563l10.4,20.1A2.139,2.139,0,0,1-318.723,582.429Z" transform="translate(404.001 -491.492)" fill="#e7e8fa" opacity="0.46"/>
          <g id="Group_17" data-name="Group 17" transform="translate(51.22)">
            <path id="Path_5" data-name="Path 5" d="M-328.64,575.732s-8.538-3.881-10.247-4.967-7.3-7.762-8.694-8.54a7.044,7.044,0,0,0-3.726-.931c-.466.155-4.036-.155-4.5,0s-5.28-.621-5.9-.466-2.795-.776-2.95,0-.155,1.242,1.4,1.707,5.9,1.243,5.9,1.243a3.48,3.48,0,0,0-1.707.931c-.778.776-1.709,1.864-1.709,2.484a34.215,34.215,0,0,0,1.243,3.726c.31,1.086,2.328,2.485,3.1,2.95s.933-.622.622-1.553a6.877,6.877,0,0,0-1.088-1.862,6.906,6.906,0,0,0,1.864,2.172A18.931,18.931,0,0,0-351,574.49l6.211,1.4a61.024,61.024,0,0,0,5.743,4.5c2.795,1.862,6.366,4.192,6.366,4.192Z" transform="translate(364.725 -488.614)" fill="#fb7c5c"/>
            <g id="Group_16" data-name="Group 16" transform="translate(19.629)">
              <g id="Group_2" data-name="Group 2" transform="translate(107.653 57.79)">
                <path id="Path_6" data-name="Path 6" d="M-277.156,552.422S-272.4,555.477-269.5,565s5.8,17.8,6.209,20.286c0,2.485-19.043,10.35-25.669,7.452S-289.783,553.508-277.156,552.422Z" transform="translate(291.724 -552.422)" fill="#ffd64b"/>
                <path id="Path_7" data-name="Path 7" d="M-270.327,574.656c-1.545-3.4-2.4-10.477-2.73-13.858-.115-1.153-.167-1.876-.167-1.876l-10.765,1.656c-1.008.336-3.381,2.382-5.844,4.688-2.655,10.116-2.645,21.1.875,22.637,4.906,2.146,16.621-1.611,22.37-4.714C-267.654,580.211-269.18,577.179-270.327,574.656Z" transform="translate(291.724 -547.589)" fill="#ffb46d"/>
              </g>
              <g id="Group_15" data-name="Group 15" transform="translate(0 11.08)">
                <g id="Group_7" data-name="Group 7" transform="translate(77.746 146.769)">
                  <g id="Group_5" data-name="Group 5" transform="translate(10.755 135.404)">
                    <g id="Group_3" data-name="Group 3" transform="translate(17.453)">
                      <path id="Path_8" data-name="Path 8" d="M-290.613,691.843s1.824,5.836,1.095,8.753-5.107,4.741-2.188,5.834,11.3-.729,14.587-3.281c2.553-2.553-1.459-4.012-2.188-5.834s-1.459-9.846-1.459-9.846Z" transform="translate(292.698 -687.468)" fill="#fb7c5c"/>
                    </g>
                    <path id="Path_9" data-name="Path 9" d="M-289.376,694.075c2.057-1.21,4.763-2.207,4.922.818a10.117,10.117,0,0,1-2.962,7.707,10.267,10.267,0,0,1-4.289-.206c-2.919-1.093,1.458-2.917,2.188-5.834A8.421,8.421,0,0,0-289.376,694.075Z" transform="translate(310.152 -683.433)" fill="#fba181"/>
                    <g id="Group_4" data-name="Group 4" transform="translate(0 12.672)">
                      <path id="Path_10" data-name="Path 10" d="M-302.275,707.063s-.776.969.387,2.519,19.186,1.744,23.451.776,12.4-3.876,13.567-6.2c.194-2.519-2.132-5.039-2.132-5.039Z" transform="translate(302.842 -691.479)" fill="#e1eafb"/>
                      <path id="Path_11" data-name="Path 11" d="M-266.121,704.946c-1,2.324-7.429,5.248-12.153,6.58h-23.753c-.776-.931-1.1-1.993.167-2.2,2.188,0,9.846-3.283,12.034-4.741s2.188-5.105,5.105-6.2c11.305,2.188,15.317-3.646,15.317-3.646,1.822,2.917,1.458,4.374,1.458,4.374S-265.027,702.394-266.121,704.946Z" transform="translate(302.708 -694.736)" fill="#025da6"/>
                      <path id="Path_12" data-name="Path 12" d="M-286.4,707.837h-5.388a11.758,11.758,0,0,0,2.132-1.749c4.65-5.2,10.941-6.836,14.5-6.291a3.079,3.079,0,0,1,1.142.385,3.081,3.081,0,0,1-.23,1.074C-275.239,703.581-281.673,706.505-286.4,707.837Z" transform="translate(310.832 -691.047)" fill="#023c5d"/>
                    </g>
                  </g>
                  <g id="Group_6" data-name="Group 6">
                    <path id="Path_13" data-name="Path 13" d="M-274.25,613.394s-.516,18.09-3.1,27.908a110.162,110.162,0,0,0-3.1,35.143c1.034,11.888,5.168,21.19,5.686,29.976s8.139,39.8,7.623,42.9c-.518,2.584-8.27,3.618-12.922,2.066-2.584-2.066-17.443-50.131-22.611-60.983s-3.1-20.158-3.618-26.358-2.584-51.165-2.584-51.165S-285.619,605.642-274.25,613.394Z" transform="translate(308.877 -609.809)" fill="#721930"/>
                    <path id="Path_14" data-name="Path 14" d="M-299.057,659.468c1.55,15.5,8.528,13.954,6.978,24.808s-1.552,13.178,3.876,24.806c4.762,10.205,13.488,30.75,12.841,41.807a16.216,16.216,0,0,1-4.7-.72c-2.584-2.066-17.443-50.131-22.611-60.983s-3.1-20.157-3.618-26.358-2.584-51.165-2.584-51.165.272-.084.748-.22l11.4,6.938S-300.607,643.963-299.057,659.468Z" transform="translate(308.877 -608.594)" fill="#c05275"/>
                  </g>
                </g>
                <g id="Group_12" data-name="Group 12" transform="translate(0 139.5)">
                  <g id="Group_10" data-name="Group 10" transform="translate(0 145.425)">
                    <path id="Path_15" data-name="Path 15" d="M-343.149,703.469a19.3,19.3,0,0,0,4.347-4.486c1.243-2.172,2.174-9.937,3.105-9.937s10.557,3.726,10.557,3.726l-3.416,5.28,1.243,5.278s-4.348,3.416-7.452,3.416S-343.149,703.469-343.149,703.469Z" transform="translate(361.139 -689.046)" fill="#fb7c5c"/>
                    <path id="Path_16" data-name="Path 16" d="M-330.745,690.661a37.934,37.934,0,0,0-4.952-1.615c-.931,0-1.862,7.764-3.105,9.937a19.3,19.3,0,0,1-4.347,4.486,28.724,28.724,0,0,0,6.84,3.067,5.192,5.192,0,0,0,.922-1.343c1.451-3.313-.413-7.246.622-9.316A31.6,31.6,0,0,1-330.745,690.661Z" transform="translate(361.139 -689.046)" fill="#fba181"/>
                    <g id="Group_9" data-name="Group 9" transform="translate(0 10.777)">
                      <g id="Group_8" data-name="Group 8">
                        <path id="Path_17" data-name="Path 17" d="M-353.034,707.554s-.774.969.389,2.519,19.186,1.745,23.449.776,12.4-3.876,13.567-6.2c.194-2.519-2.132-5.039-2.132-5.039Z" transform="translate(353.601 -691.969)" fill="#e1eafb"/>
                        <path id="Path_18" data-name="Path 18" d="M-316.88,705.437c-1,2.324-7.429,5.248-12.153,6.58h-23.751c-.776-.931-1.1-1.993.166-2.2,2.188,0,9.848-3.281,12.036-4.741s2.186-5.105,5.105-6.2c11.3,2.188,15.316-3.646,15.316-3.646,1.824,2.917,1.459,4.376,1.459,4.376S-315.785,702.885-316.88,705.437Z" transform="translate(353.467 -695.227)" fill="#025da6"/>
                        <path id="Path_19" data-name="Path 19" d="M-337.155,708.328h-5.388a11.834,11.834,0,0,0,2.134-1.749c4.65-5.2,10.939-6.837,14.5-6.289a3.024,3.024,0,0,1,1.142.385,3.075,3.075,0,0,1-.232,1.072C-326,704.072-332.432,707-337.155,708.328Z" transform="translate(361.59 -691.537)" fill="#023c5d"/>
                      </g>
                    </g>
                  </g>
                  <g id="Group_11" data-name="Group 11" transform="translate(23.458)">
                    <path id="Path_20" data-name="Path 20" d="M-310.015,605.64s-6.589,23.7-10.936,39.851-4.967,36.019-9.314,49.682-7.764,46.578-9.006,50.924-1.241,7.452,2.485,8.073,4.967,3.105,9.314.621,11.49-24.841,17.078-44.091,8.074-24.841,12.421-36.641,11.178-19.251,17.389-29.808,11.178-26.7,11.178-26.7Z" transform="translate(340.013 -605.64)" fill="#721930"/>
                    <path id="Path_21" data-name="Path 21" d="M-310.015,605.64s-6.589,23.7-10.936,39.851-4.967,36.019-9.314,49.682-7.764,46.578-9.006,50.924-1.241,7.452,2.485,8.073a10.035,10.035,0,0,1,1.081.249c2.2-7.5,1.2-9.654,4.2-17.638,3.726-9.937,5.59-23.6,6.211-33.534s6.831-16.147,9.937-27.325,1.241-14.906.621-29.189c-.523-12.038,9.982-32.459,13.3-38.578Z" transform="translate(340.013 -605.64)" fill="#c05275"/>
                  </g>
                </g>
                <path id="Path_22" data-name="Path 22" d="M-305.645,534.8s-3.3,5.428-2.831,7.787,4.247,1.653,4.247,1.653Z" transform="translate(386.886 -518.813)" fill="#fba181"/>
                <g id="Group_14" data-name="Group 14" transform="translate(79.904)">
                  <g id="Group_13" data-name="Group 13">
                    <path id="Path_23" data-name="Path 23" d="M-304.255,525.632s-2.912,4.235-2.912,8.205-1.588,23.556,1.058,25.937,13.234-.265,13.234-.265,5.029-1.323,7.147-8.734-4.235-20.381-4.235-20.381Z" transform="translate(307.639 -525.632)" fill="#fb7c5c"/>
                    <path id="Path_24" data-name="Path 24" d="M-301.054,546.284a18.805,18.805,0,0,1-2.39,12.193s11.715-.957,18.409-.241c0,0-1.435-11.236-1.2-14.582S-296.75,542.7-301.054,546.284Z" transform="translate(310.758 -513.423)" fill="#fb7c5c"/>
                  </g>
                  <path id="Path_25" data-name="Path 25" d="M-301.147,538.524s.307-4.908,2.607-3.681,1.688,8.894-.921,9.508S-301.454,539.6-301.147,538.524Z" transform="translate(312.251 -518.93)" fill="#fba181"/>
                </g>
                <path id="Path_26" data-name="Path 26" d="M-280.159,547.849c-5.511-.654-16.151-1.428-22.051,1.325L-306.585,553l31.044,1.351-.472-2.593A4.79,4.79,0,0,0-280.159,547.849Z" transform="translate(388.327 -509.576)" fill="#2dd7a2"/>
                <path id="Path_27" data-name="Path 27" d="M-315.293,578.357c0-8.205,2.188-18.6,8.205-23.521s20.3-4.924,20.3-4.924l24.012,1.095,8.753,3.281a14.271,14.271,0,0,1,4.922,13.127s-.816,4.465-6.242,20.745-5.292,24.494-7.616,29.146,1.414,17.369,2.964,24.346-1.55,20.156-5.426,24.807-25.583,10.078-39.537.776-17.054-15.506-17.83-20.157,10.8-31.892,10.8-42.746S-315.293,578.357-315.293,578.357Z" transform="translate(376.248 -507.578)" fill="#2dd7a2"/>
                <path id="Path_28" data-name="Path 28" d="M-270.621,667.432c-8.256,3.227-23.594,4.8-34.341-2.363-13.954-9.3-17.054-15.506-17.83-20.157s10.8-31.892,10.8-42.745-3.3-25.976-3.3-25.976c0-6.556,1.4-14.5,5.034-19.945,4.741-.093,9.965.675,16.925-1.259,13.956-3.876,30.235-3.1,35.661,6.976s-3.1,27.134-6.978,42.637,0,17.056.776,40.311C-263.521,655.507-266.87,662.716-270.621,667.432Z" transform="translate(376.248 -505.412)" fill="#2db985"/>
              </g>
              <path id="Path_29" data-name="Path 29" d="M-307.594,529.543s-3.829,4.969,4.554,12.421c7.623,7.653,1.484,15.9,8,27.083s9.006,8.693,8.385,24.841.31,25.461,11.8,31.051,26.7-.622,29.189-15.837-9.626-25.151-11.8-38.5,3.416-20.494-3.105-28.567-9-6.211-11.8-14.283-14.9-9.626-22.668-7.762S-307.282,527.681-307.594,529.543Z" transform="translate(386.928 -519.277)" fill="#022347"/>
              <path id="Path_30" data-name="Path 30" d="M-297.9,519.309c4.3.291,11.9,1.684,13.947,7.817,2.9,8.693-2.07,11.591,5.8,17.389s9.108,4.554,7.452,16.56-1.241,14.491,3.726,22.356,7.867,24.427,1.243,35.606a41.415,41.415,0,0,1-6.3,7.834c8.657-.778,16.763-7.025,18.518-17.771,2.483-15.214-9.626-25.151-11.8-38.5s3.416-20.494-3.105-28.567-9-6.211-11.8-14.283C-282.47,521.264-290.715,518.992-297.9,519.309Z" transform="translate(394.786 -519.275)" fill="#023c6f"/>
            </g>
            <path id="Path_31" data-name="Path 31" d="M-284.924,552.084s-6.211.828-11.178,11.593S-311.008,591-314.319,591.831s-2.9-2.072-14.491-7.867-14.9-6.624-14.9-6.624a11.808,11.808,0,0,0-5.8,10.765c.828,3.311,1.243,4.554,1.243,4.554s14.076,7.452,19.458,12.006,12.834,7.037,17.389,8.693,16.974-11.178,20.286-15.732,16.975-21.115,18.217-29.81S-273.746,550.428-284.924,552.084Z" transform="translate(376.022 -495.035)" fill="#2dd7a2"/>
            <path id="Path_32" data-name="Path 32" d="M-284.516,562.826c-4.554,8.693-9.108,28.154-16.974,36.019s-9.108,7.452-11.593,7.039-7.039-5.8-16.974-10.35-12.421-5.382-17.389-8.7c-.7-.469-1.4-.893-2.073-1.282,0,.286-.014.568,0,.868.828,3.311,1.243,4.554,1.243,4.554s14.076,7.452,19.458,12.006,12.834,7.037,17.389,8.693,16.974-11.178,20.287-15.732,16.975-21.115,18.217-29.81c.638-4.472.389-8.934-1.515-12C-276.4,554.533-281.02,556.151-284.516,562.826Z" transform="translate(376.027 -493.355)" fill="#2db985"/>
            <path id="Path_33" data-name="Path 33" d="M-338.915,570.764c-1.707-1.088-7.3-7.762-8.693-8.54a7.044,7.044,0,0,0-3.726-.931c-.466.155-4.036-.155-4.5,0s-5.28-.621-5.9-.466-2.795-.776-2.95,0a36.318,36.318,0,0,0,9.264,1.6c5.175.207,6.418,2.07,9.108,4.554s3.313,5.175,5.8,6.418c1.269.635,2.807-.3,4.01-1.363C-337.587,571.505-338.476,571.043-338.915,570.764Z" transform="translate(364.753 -488.614)" fill="#fba181"/>
          </g>
        </g>
        <rect id="Rectangle_1" data-name="Rectangle 1" width="183.656" height="101.127" rx="6.667" transform="translate(86.951 20.881)" fill="#fff"/>
        <rect id="Rectangle_2" data-name="Rectangle 2" width="183.656" height="101.127" rx="6.667" transform="translate(97.413 29.599)" fill="none" stroke="#fff" stroke-miterlimit="10" stroke-width="1"/>
        <g id="Group_23" data-name="Group 23" transform="translate(102.989 36.062)">
          <g id="Group_19" data-name="Group 19">
            <path id="Path_34" data-name="Path 34" d="M-429.809,518.641h22.757c0-6.08-3.349-11.227-7.966-12.956a7.337,7.337,0,0,0,3.928-6.5,7.341,7.341,0,0,0-7.341-7.34,7.341,7.341,0,0,0-7.34,7.34,7.339,7.339,0,0,0,3.927,6.5C-426.46,507.414-429.809,512.561-429.809,518.641Z" transform="translate(429.809 -491.847)" fill="#d6dedb"/>
          </g>
          <g id="Group_20" data-name="Group 20" transform="translate(0 40.538)">
            <path id="Path_35" data-name="Path 35" d="M-429.809,541.89h22.757c0-6.08-3.349-11.227-7.966-12.956a7.337,7.337,0,0,0,3.928-6.5,7.341,7.341,0,0,0-7.341-7.341,7.341,7.341,0,0,0-7.34,7.341,7.339,7.339,0,0,0,3.927,6.5C-426.46,530.664-429.809,535.811-429.809,541.89Z" transform="translate(429.809 -515.097)" fill="#d6dedb"/>
          </g>
          <g id="Group_21" data-name="Group 21" transform="translate(40.102)">
            <path id="Path_36" data-name="Path 36" d="M-406.809,518.641h22.757c0-6.08-3.349-11.227-7.966-12.956a7.337,7.337,0,0,0,3.928-6.5,7.341,7.341,0,0,0-7.34-7.34,7.341,7.341,0,0,0-7.34,7.34,7.339,7.339,0,0,0,3.927,6.5C-403.46,507.414-406.809,512.561-406.809,518.641Z" transform="translate(406.809 -491.847)" fill="url(#linear-gradient-3)"/>
          </g>
          <g id="Group_22" data-name="Group 22" transform="translate(40.102 40.538)">
            <path id="Path_37" data-name="Path 37" d="M-406.809,541.89h22.757c0-6.08-3.349-11.227-7.966-12.956a7.337,7.337,0,0,0,3.928-6.5,7.341,7.341,0,0,0-7.34-7.341,7.341,7.341,0,0,0-7.34,7.341,7.339,7.339,0,0,0,3.927,6.5C-403.46,530.664-406.809,535.811-406.809,541.89Z" transform="translate(406.809 -515.097)" fill="#d6dedb"/>
          </g>
        </g>
        <g id="Group_26" data-name="Group 26" transform="translate(192.289)">
          <rect id="Rectangle_3" data-name="Rectangle 3" width="156.199" height="52.066" rx="7.738" fill="url(#linear-gradient)"/>
          <text id="_02:30PM" data-name="02:30PM" transform="translate(68.065 19.794)" fill="#fff" font-size="16" font-family="Montserrat-Thin, Montserrat" font-weight="200" letter-spacing="0.02em"><tspan x="0" y="0">02:30PM</tspan></text>
          <g id="Group_24" data-name="Group 24" transform="translate(126.782 28.331)">
            <path id="Path_38" data-name="Path 38" d="M-297.088,491.809a4.394,4.394,0,0,0-4.394-4.4,4.394,4.394,0,0,0-4.4,4.4s-.225,4,4.052,9.886a.422.422,0,0,0,.685,0C-296.882,495.888-297.088,491.809-297.088,491.809Zm-4.394,1.937a1.939,1.939,0,0,1-1.939-1.937,1.939,1.939,0,0,1,1.939-1.939,1.939,1.939,0,0,1,1.937,1.939A1.938,1.938,0,0,1-301.482,493.746Z" transform="translate(305.879 -487.413)" fill="url(#linear-gradient-5)"/>
          </g>
          <g id="Group_25" data-name="Group 25" transform="translate(70.323 30.429)">
            <path id="Path_39" data-name="Path 39" d="M-292.955,492.673h-43.277a2.029,2.029,0,0,1-2.028-2.029h0a2.028,2.028,0,0,1,2.028-2.028h43.277a2.029,2.029,0,0,1,2.028,2.028h0A2.029,2.029,0,0,1-292.955,492.673Z" transform="translate(338.26 -488.616)" fill="#fff"/>
            <path id="Path_40" data-name="Path 40" d="M-316.284,496.745h-19.948a2.029,2.029,0,0,1-2.028-2.03h0a2.028,2.028,0,0,1,2.028-2.028h19.948a2.027,2.027,0,0,1,2.028,2.028h0A2.028,2.028,0,0,1-316.284,496.745Z" transform="translate(338.26 -485.588)" fill="#fff"/>
          </g>
        </g>
        <g id="Group_34" data-name="Group 34" transform="translate(208.967 7.351)">
          <circle id="Ellipse_1" data-name="Ellipse 1" cx="19.51" cy="19.51" r="19.51" fill="url(#linear-gradient-6)"/>
          <g id="Group_33" data-name="Group 33">
            <g id="Group_32" data-name="Group 32" clip-path="url(#clip-path)">
              <g id="Group_31" data-name="Group 31" transform="translate(3.778 6.999)">
                <g id="Group_30" data-name="Group 30">
                  <circle id="Ellipse_2" data-name="Ellipse 2" cx="11.011" cy="11.011" r="11.011" transform="translate(4.939)" fill="#404a69"/>
                  <path id="Path_41" data-name="Path 41" d="M-335.4,505.761a15.751,15.751,0,0,0-15.73-14.949,15.754,15.754,0,0,0-15.732,14.949Z" transform="translate(366.86 -470.905)" fill="#b15ef2"/>
                  <path id="Path_42" data-name="Path 42" d="M-350.556,494.328a5.1,5.1,0,0,1-5.1,5.1,5.1,5.1,0,0,1-5.105-5.1,5.105,5.105,0,0,1,5.105-5.105A5.1,5.1,0,0,1-350.556,494.328Z" transform="translate(371.392 -472.086)" fill="#ff7657"/>
                  <g id="Group_29" data-name="Group 29" transform="translate(2.786 3.889)">
                    <g id="Group_27" data-name="Group 27" transform="translate(20.565 7.279)">
                      <path id="Path_43" data-name="Path 43" d="M-348.533,488.267A2.467,2.467,0,0,1-351,490.736a2.467,2.467,0,0,1-2.467-2.469A2.467,2.467,0,0,1-351,485.8,2.467,2.467,0,0,1-348.533,488.267Z" transform="translate(353.467 -485.8)" fill="#ff7657"/>
                    </g>
                    <g id="Group_28" data-name="Group 28" transform="translate(0 7.279)">
                      <path id="Path_44" data-name="Path 44" d="M-360.326,488.267a2.469,2.469,0,0,1-2.467,2.469,2.469,2.469,0,0,1-2.469-2.469,2.469,2.469,0,0,1,2.469-2.467A2.468,2.468,0,0,1-360.326,488.267Z" transform="translate(365.262 -485.8)" fill="#ff7657"/>
                    </g>
                    <path id="Path_45" data-name="Path 45" d="M-343.942,491.372a9.748,9.748,0,0,1-9.747,9.748,9.748,9.748,0,0,1-9.748-9.748,9.747,9.747,0,0,1,9.748-9.747A9.747,9.747,0,0,1-343.942,491.372Z" transform="translate(366.619 -481.625)" fill="#ff9677"/>
                  </g>
                  <path id="Path_46" data-name="Path 46" d="M-345,489.2c-1.09,3.2-5.559,4.58-9.982,3.076s-7.124-5.32-6.035-8.523,5.559-4.58,9.98-3.076S-343.911,486-345,489.2Z" transform="translate(371.025 -478.893)" fill="#404a69"/>
                </g>
              </g>
            </g>
          </g>
        </g>
        <g id="Group_35" data-name="Group 35" transform="translate(186.385 75.406)">
          <rect id="Rectangle_4" data-name="Rectangle 4" width="61.65" height="21.876" rx="2.625" fill="url(#linear-gradient-6)"/>
          <text id="BOOK" transform="translate(13.408 13.56)" fill="#fff" font-size="11" font-family="SegoeUI, Segoe UI"><tspan x="0" y="0">BOOK</tspan></text>
        </g>
        <g id="Group_41" data-name="Group 41" transform="translate(0 111.038)">
          <g id="Group_36" data-name="Group 36">
            <path id="Path_47" data-name="Path 47" d="M-488.877,543.621v76.8a6.769,6.769,0,0,0,6.77,6.771h132.4a6.77,6.77,0,0,0,6.77-6.771v-76.8Z" transform="translate(488.877 -528.325)" fill="url(#linear-gradient-8)"/>
            <path id="Path_48" data-name="Path 48" d="M-349.7,534.848h-132.4a6.771,6.771,0,0,0-6.77,6.772v13.692h145.942V541.62A6.772,6.772,0,0,0-349.7,534.848Z" transform="translate(488.877 -534.848)" fill="url(#linear-gradient-9)"/>
          </g>
          <g id="Group_40" data-name="Group 40" transform="translate(18.759 29.401)">
            <g id="Group_37" data-name="Group 37">
              <rect id="Rectangle_5" data-name="Rectangle 5" width="17.769" height="17.769" rx="1.085" fill="#c2d6ff"/>
              <rect id="Rectangle_6" data-name="Rectangle 6" width="17.769" height="17.769" rx="1.085" transform="translate(22.664)" fill="#a6c7ff"/>
              <rect id="Rectangle_7" data-name="Rectangle 7" width="17.769" height="17.769" rx="1.085" transform="translate(45.327)" fill="#c2d6ff"/>
              <rect id="Rectangle_8" data-name="Rectangle 8" width="17.769" height="17.769" rx="1.085" transform="translate(67.991)" fill="#c2d6ff"/>
              <rect id="Rectangle_9" data-name="Rectangle 9" width="17.769" height="17.769" rx="1.085" transform="translate(90.655)" fill="#c2d6ff"/>
            </g>
            <g id="Group_38" data-name="Group 38" transform="translate(0 21.531)">
              <rect id="Rectangle_10" data-name="Rectangle 10" width="17.769" height="17.769" rx="1.085" fill="#c2d6ff"/>
              <rect id="Rectangle_11" data-name="Rectangle 11" width="17.769" height="17.769" rx="1.085" transform="translate(22.664)" fill="#c2d6ff"/>
              <rect id="Rectangle_12" data-name="Rectangle 12" width="17.769" height="17.769" rx="1.085" transform="translate(45.327)" fill="#c2d6ff"/>
              <rect id="Rectangle_13" data-name="Rectangle 13" width="17.769" height="17.769" rx="1.085" transform="translate(67.991)" fill="#d4e5ff"/>
              <rect id="Rectangle_14" data-name="Rectangle 14" width="17.769" height="17.769" rx="1.085" transform="translate(90.655)" fill="#d4e5ff"/>
            </g>
            <g id="Group_39" data-name="Group 39" transform="translate(0 43.061)">
              <rect id="Rectangle_15" data-name="Rectangle 15" width="17.769" height="17.769" rx="1.085" fill="#a6c7ff"/>
              <rect id="Rectangle_16" data-name="Rectangle 16" width="17.769" height="17.769" rx="1.085" transform="translate(22.664)" fill="#c2d6ff"/>
              <rect id="Rectangle_17" data-name="Rectangle 17" width="17.769" height="17.769" rx="1.085" transform="translate(45.327)" fill="#c2d6ff"/>
              <rect id="Rectangle_18" data-name="Rectangle 18" width="17.769" height="17.769" rx="1.085" transform="translate(67.991)" fill="url(#linear-gradient-10)"/>
              <rect id="Rectangle_19" data-name="Rectangle 19" width="17.769" height="17.769" rx="1.085" transform="translate(90.655)" fill="#c2d6ff"/>
            </g>
          </g>
        </g>
        <g id="Group_42" data-name="Group 42" transform="translate(59.054 206.281)">
          <rect id="Rectangle_20" data-name="Rectangle 20" width="120.597" height="38.359" rx="5.833" fill="url(#linear-gradient-11)"/>
          <text id="THU" transform="translate(17.192 23.29)" fill="#fff" font-size="16" font-family="Montserrat-Thin, Montserrat" font-weight="200" letter-spacing="0.02em"><tspan x="0" y="0">THU</tspan></text>
          <text id="_23" data-name="23" transform="translate(79.961 22.29)" fill="#fff" font-size="14" font-family="Montserrat-Thin, Montserrat" font-weight="200" letter-spacing="0.02em"><tspan x="0" y="0">23</tspan></text>
          <line id="Line_1" data-name="Line 1" y2="22.085" transform="translate(65.675 8.137)" fill="#fff"/>
        </g>
        <g id="Group_43" data-name="Group 43" transform="translate(41.037 5.48)">
          <circle id="Ellipse_4" data-name="Ellipse 4" cx="4.795" cy="4.795" r="4.795" transform="translate(235.092 83.837)" fill="url(#linear-gradient-12)"/>
          <circle id="Ellipse_5" data-name="Ellipse 5" cx="3.196" cy="3.196" r="3.196" transform="translate(129.025)" fill="url(#linear-gradient-12)"/>
          <circle id="Ellipse_6" data-name="Ellipse 6" cx="3.196" cy="3.196" r="3.196" transform="translate(249.331 55.794)" fill="url(#linear-gradient-12)"/>
          <path id="Path_49" data-name="Path 49" d="M-455.46,602.08a4.941,4.941,0,0,1-4.939,4.941,4.942,4.942,0,0,1-4.941-4.941,4.941,4.941,0,0,1,4.941-4.94A4.941,4.941,0,0,1-455.46,602.08Z" transform="translate(465.341 -382.971)" fill="none" stroke="#10b7e3" stroke-miterlimit="10" stroke-width="1"/>
          <path id="Path_50" data-name="Path 50" d="M-393.28,585.336a3.2,3.2,0,0,1-3.2,3.2,3.2,3.2,0,0,1-3.2-3.2,3.2,3.2,0,0,1,3.2-3.2A3.2,3.2,0,0,1-393.28,585.336Z" transform="translate(514.169 -394.125)" fill="none" stroke="#10b7e3" stroke-miterlimit="10" stroke-width="1"/>
          <circle id="Ellipse_7" data-name="Ellipse 7" cx="3.196" cy="3.196" r="3.196" transform="translate(308.613 51.435)" fill="none" stroke="#7f5eff" stroke-miterlimit="10" stroke-width="1"/>
        </g>
        <line id="Line_2" data-name="Line 2" x2="44.461" transform="translate(30.285 98.47)" fill="none" stroke="#7f5eff" stroke-linecap="round" stroke-linejoin="round" stroke-width="1" stroke-dasharray="0 5"/>
        <path id="Path_51" data-name="Path 51" d="M-379.008,608.576h16.564V591.14h36.615" transform="translate(570.573 -381.953)" fill="none" stroke="#7f5eff" stroke-linecap="round" stroke-linejoin="round" stroke-width="1" stroke-dasharray="0 5"/>
      </g>
      <circle id="Ellipse_8" data-name="Ellipse 8" cx="19.179" cy="19.179" r="19.179" transform="translate(64.866 276.605)" fill="none" stroke="#a4a9f0" stroke-miterlimit="10" stroke-width="1"/>
      <circle id="Ellipse_9" data-name="Ellipse 9" cx="12.786" cy="12.786" r="12.786" transform="translate(234.574 273.118)" fill="none" stroke="#a4a9f0" stroke-miterlimit="10" stroke-width="1"/>
    </g>
    <line id="Line_3" data-name="Line 3" x1="687.5" transform="translate(-54 503.174)" fill="none" stroke="#707070" stroke-width="1" opacity="0.1"/>
    <g transform="matrix(1, 0, 0, 1, 0, 0)" filter="url(#Ellipse_12)">
      <circle id="Ellipse_12-2" data-name="Ellipse 12" cx="46" cy="46" r="46" transform="translate(210 15)" fill="#fff"/>
    </g>
    <g transform="matrix(1, 0, 0, 1, 0, 0)" filter="url(#Ellipse_13)">
      <circle id="Ellipse_13-2" data-name="Ellipse 13" cx="37" cy="37" r="37" transform="translate(15 151)" fill="#fff"/>
    </g>
    <g id="Layer_14" data-name="Layer 14" transform="translate(36.025 172.024)">
      <path id="Path_1100" data-name="Path 1100" d="M32.809,16.837H29.387V9.991a1.141,1.141,0,0,0-1.141-1.141H24.823V6.443l7.655,2.407a1.05,1.05,0,0,0,.331,0,1.153,1.153,0,1,0,.331-2.282L18.309,2.005a1.3,1.3,0,0,0-.662,0L2.816,6.569a1.188,1.188,0,1,0,.662,2.282l7.655-2.407V8.851H7.71A1.141,1.141,0,0,0,6.569,9.991v6.845H3.147a1.141,1.141,0,0,0-1.141,1.141V32.809A1.141,1.141,0,0,0,3.147,33.95H32.809a1.141,1.141,0,0,0,1.141-1.141V17.977A1.141,1.141,0,0,0,32.809,16.837ZM22.542,5.747v7.667H13.415V5.747l4.563-1.4ZM4.288,19.118H6.569v12.55H4.288Zm4.563-1.141V11.132h2.282v3.423A1.141,1.141,0,0,0,12.274,15.7H23.682a1.141,1.141,0,0,0,1.141-1.141V11.132H27.1V31.668H23.682V23.682a1.141,1.141,0,0,0-1.141-1.141H13.415a1.141,1.141,0,0,0-1.141,1.141v7.986H8.851Zm5.7,13.69V24.823H21.4v6.845Zm17.113,0H29.387V19.118h2.282Z" transform="translate(-1.959 -1.962)" fill="#3ac3dd"/>
      <path id="Path_1101" data-name="Path 1101" d="M14.141,9.563h1.141V10.7a1.141,1.141,0,1,0,2.282,0V9.563H18.7a1.141,1.141,0,1,0,0-2.282H17.563V6.141a1.141,1.141,0,1,0-2.282,0V7.282H14.141a1.141,1.141,0,1,0,0,2.282Z" transform="translate(-0.403 -1.535)" fill="#3ac3dd"/>
    </g>
    <path id="iconfinder_architecture-interior-06_809115" d="M38.076,19.866H31.454A11.517,11.517,0,0,0,19.866,8.277V4.966h6.622V0H18.21V8.443A11.583,11.583,0,0,0,8.277,19.866H1.655A1.564,1.564,0,0,0,0,21.521v18.21H39.731V21.521A1.564,1.564,0,0,0,38.076,19.866ZM19.866,1.655h4.966V3.311H19.866Zm0,9.933a8.2,8.2,0,0,1,8.277,8.277H11.588A8.2,8.2,0,0,1,19.866,11.588ZM11.588,36.42H8.277V29.8a1.564,1.564,0,0,1,1.655-1.655A1.564,1.564,0,0,1,11.588,29.8Zm4.966,0H13.244V29.8A1.564,1.564,0,0,1,14.9,28.143,1.564,1.564,0,0,1,16.555,29.8Zm4.966,0H18.21V29.8a1.655,1.655,0,0,1,3.311,0Zm4.966,0H23.177V29.8a1.655,1.655,0,0,1,3.311,0Zm4.966,0H28.143V29.8a1.655,1.655,0,0,1,3.311,0Zm4.966,0H33.109V29.8A3.321,3.321,0,0,0,29.8,26.487a3.521,3.521,0,0,0-2.483,1.159,3.521,3.521,0,0,0-2.483-1.159,3.521,3.521,0,0,0-2.483,1.159,3.521,3.521,0,0,0-2.483-1.159,3.521,3.521,0,0,0-2.483,1.159A3.521,3.521,0,0,0,14.9,26.487a3.521,3.521,0,0,0-2.483,1.159,3.521,3.521,0,0,0-2.483-1.159A3.321,3.321,0,0,0,6.622,29.8V36.42H3.311V23.177H36.42Z" transform="translate(236.157 41.157)" fill="#3ac3dd"/>
    <g transform="matrix(1, 0, 0, 1, 0, 0)" filter="url(#Ellipse_10)">
      <circle id="Ellipse_10-2" data-name="Ellipse 10" cx="46" cy="46" r="46" transform="translate(74 15)" fill="#fff"/>
    </g>
    <g id="iconfinder_00-ELASTOFONT-STORE-READY_bank_2703084" transform="translate(100.082 41.082)">
      <path id="Path_1102" data-name="Path 1102" d="M40.888,12.192c0-.018.01-.034.01-.052a1.174,1.174,0,0,0-.034-.169,1.217,1.217,0,0,0-.051-.254,2.325,2.325,0,0,0-.244-.4,1.226,1.226,0,0,0-.2-.165,1.18,1.18,0,0,0-.134-.109l-18.7-9.9a1.17,1.17,0,0,0-.113-.033,1.354,1.354,0,0,0-.471-.095,1.353,1.353,0,0,0-.472.1c-.036.015-.075.014-.11.032l-18.7,9.9a1.18,1.18,0,0,0-.134.109,1.225,1.225,0,0,0-.2.165,1.2,1.2,0,0,0-.132.2,1.2,1.2,0,0,0-.112.21,1.217,1.217,0,0,0-.051.254A1.175,1.175,0,0,0,1,12.14c0,.018.01.034.01.052a1.241,1.241,0,0,0,.049.243,1.232,1.232,0,0,0,.07.237c.008.017.006.035.015.051s.048.041.066.069a1.221,1.221,0,0,0,.334.35,1.175,1.175,0,0,0,.132.089,1.215,1.215,0,0,0,.571.156h37.4a1.215,1.215,0,0,0,.571-.156,1.175,1.175,0,0,0,.132-.089,1.221,1.221,0,0,0,.334-.35c.018-.028.05-.039.066-.069s.007-.034.015-.051a1.232,1.232,0,0,0,.07-.237A1.234,1.234,0,0,0,40.888,12.192ZM20.949,3.651l13.682,7.242H7.267Z" transform="translate(-1 -1.01)" fill="#3ac3dd"/>
      <path id="Path_1103" data-name="Path 1103" d="M10.3,26.222a1.247,1.247,0,0,0,1.247,1.247h6.468a1.242,1.242,0,0,0,.438-2.405V11.658a1.242,1.242,0,0,0-.438-2.405H11.552a1.242,1.242,0,0,0-.438,2.405V25.063A1.24,1.24,0,0,0,10.3,26.222Zm3.3-1.247V11.747h2.357V24.975Z" transform="translate(5.164 4.45)" fill="#3ac3dd"/>
      <path id="Path_1104" data-name="Path 1104" d="M3.82,26.222a1.247,1.247,0,0,0,1.247,1.247h6.468a1.242,1.242,0,0,0,.438-2.405V11.658a1.242,1.242,0,0,0-.438-2.405H5.067a1.242,1.242,0,0,0-.438,2.405V25.063A1.24,1.24,0,0,0,3.82,26.222Zm3.3-1.247V11.747H9.48V24.975Z" transform="translate(0.868 4.45)" fill="#3ac3dd"/>
      <path id="Path_1105" data-name="Path 1105" d="M16.789,26.222a1.247,1.247,0,0,0,1.247,1.247H24.5a1.242,1.242,0,0,0,.438-2.405V11.658A1.242,1.242,0,0,0,24.5,9.253H18.036a1.242,1.242,0,0,0-.438,2.405V25.063A1.24,1.24,0,0,0,16.789,26.222Zm3.3-1.247V11.747h2.357V24.975Z" transform="translate(9.459 4.45)" fill="#3ac3dd"/>
      <path id="Path_1106" data-name="Path 1106" d="M1.983,22.344A1.247,1.247,0,0,0,3.23,23.59H37.365a1.247,1.247,0,1,0,0-2.494H3.23A1.247,1.247,0,0,0,1.983,22.344Z" transform="translate(-0.349 12.296)" fill="#3ac3dd"/>
      <path id="Path_1107" data-name="Path 1107" d="M39.25,23.5H2.42a1.247,1.247,0,0,0,0,2.494H39.25a1.247,1.247,0,1,0,0-2.494Z" transform="translate(-0.885 13.888)" fill="#3ac3dd"/>
    </g>
    <g transform="matrix(1, 0, 0, 1, 0, 0)" filter="url(#Ellipse_15)">
      <circle id="Ellipse_15-2" data-name="Ellipse 15" cx="47" cy="47" r="47" transform="translate(422 131)" fill="#fff"/>
    </g>
    <g id="iconfinder_thefreeforty_shop_1243706" transform="translate(444.117 157.725)">
      <g id="Group_3-2" data-name="Group 3" transform="translate(0 0)">
        <path id="Path_1106-2" data-name="Path 1106" d="M24.189,24.618H13a4.492,4.492,0,0,0-4.511,4.511V32.3A4.492,4.492,0,0,0,13,36.813H24.189A4.492,4.492,0,0,0,28.7,32.3V29.128A4.492,4.492,0,0,0,24.189,24.618Zm2,7.685a1.93,1.93,0,0,1-2,2H13a1.93,1.93,0,0,1-2-2V29.128a1.93,1.93,0,0,1,2-2H24.189a1.93,1.93,0,0,1,2,2ZM49.248,16.265,46.909,3.9a1.22,1.22,0,0,0-1.169-1H3.975a1.117,1.117,0,0,0-1.169,1L.8,14.093A6.7,6.7,0,0,0,.3,16.6a6.816,6.816,0,0,0,3.508,6.014V39.82A3.708,3.708,0,0,0,7.484,43.5H30.872a1.318,1.318,0,0,0,1.336-1.336V26.789h6.682V42.159A1.318,1.318,0,0,0,40.227,43.5h2.339a3.708,3.708,0,0,0,3.675-3.675V22.279a6.979,6.979,0,0,0,3.174-5.346A1,1,0,0,0,49.248,16.265Zm-5.68,23.388A1.142,1.142,0,0,1,42.4,40.822H41.229V25.62a1.318,1.318,0,0,0-1.336-1.336H30.7a1.318,1.318,0,0,0-1.336,1.336v15.2H7.484a1.142,1.142,0,0,1-1.169-1.169v-16.2c.334,0,.668.167,1,.167a7.278,7.278,0,0,0,5.847-3.007,7.188,7.188,0,0,0,11.694,0,7.188,7.188,0,0,0,11.694,0A7.047,7.047,0,0,0,42.4,23.615a3.257,3.257,0,0,0,1.336-.167v16.2Zm3.174-23.221a4.511,4.511,0,0,1-9.021,0A1.318,1.318,0,0,0,36.385,15.1a1.23,1.23,0,0,0-1.336,1.336,4.511,4.511,0,1,1-9.021,0A1.318,1.318,0,0,0,24.691,15.1a1.23,1.23,0,0,0-1.336,1.336,4.511,4.511,0,1,1-9.021,0A1.318,1.318,0,0,0,13,15.1c-.835,0-1,.668-1,1.336a4.511,4.511,0,1,1-9.021,0,5.936,5.936,0,0,1,.334-1.671v-.167L5.145,5.406H44.9l2,10.859Z" transform="translate(-0.3 -2.9)" fill="#3ac3dd"/>
      </g>
    </g>
    <g transform="matrix(1, 0, 0, 1, 0, 0)" filter="url(#Ellipse_11)">
      <circle id="Ellipse_11-2" data-name="Ellipse 11" cx="40" cy="40" r="40" transform="translate(359 31)" fill="#fff"/>
    </g>
    <g id="Group_46" data-name="Group 46" transform="translate(380.961 53.745)">
      <g id="iconfinder_Internet_Line-20_1587498" transform="translate(0 0)">
        <g id="_x32_0-Search" transform="translate(0 0)">
          <g id="Group_4-2" data-name="Group 4">
            <path id="Path_1108" data-name="Path 1108" d="M59.22,73.478v.238a21.747,21.747,0,0,1-2.546-4.137h.409a.641.641,0,0,0,.635-.739q-.061-.384-.091-.777a.642.642,0,0,0-.64-.593H55.816a21.845,21.845,0,0,1-1.181-6.141H59.22a.2.2,0,0,0,.353.119,9.8,9.8,0,0,1,1.874-1.874.2.2,0,0,0-.119-.353h0V53.079h3.4a21.759,21.759,0,0,1,1.013,4.276.364.364,0,0,0,.406.312,9.643,9.643,0,0,1,1.326-.067.367.367,0,0,0,.372-.414,23.875,23.875,0,0,0-.9-4.107h6.668A15.056,15.056,0,0,1,75.4,59.22H73.439a.245.245,0,0,0-.151.437,9.794,9.794,0,0,1,1.419,1.36.878.878,0,0,0,.668.311H75.4q-.008.12-.019.24a.867.867,0,0,0,.13.542A9.673,9.673,0,0,1,76.581,64.4a.245.245,0,0,0,.472-.011A17.277,17.277,0,0,0,60.275,43h0a17.274,17.274,0,1,0,4.062,34.066.259.259,0,0,0,.017-.5,9.749,9.749,0,0,1-4.671-3.249A.258.258,0,0,0,59.22,73.478ZM72.242,50.97h-6.06a23.818,23.818,0,0,0-3.361-5.647A15.179,15.179,0,0,1,72.242,50.97ZM61.329,46.833a21.747,21.747,0,0,1,2.546,4.137H61.329ZM59.22,59.22H54.635a21.845,21.845,0,0,1,1.181-6.141h3.4Zm0-8.25H56.674a21.749,21.749,0,0,1,2.546-4.137Zm-1.493-5.647a23.819,23.819,0,0,0-3.361,5.647h-6.06A15.178,15.178,0,0,1,57.727,45.324Zm-10.8,7.755H53.6a23.993,23.993,0,0,0-1.07,6.141h-7.38A15.056,15.056,0,0,1,46.927,53.079Zm0,14.391a15.056,15.056,0,0,1-1.781-6.141h7.38A23.989,23.989,0,0,0,53.6,67.47Zm1.379,2.109h6.06a23.816,23.816,0,0,0,3.361,5.647A15.179,15.179,0,0,1,48.306,69.579Z" transform="translate(-43 -43)" fill="#3ac3dd"/>
          </g>
        </g>
      </g>
      <g id="Fill" transform="translate(15.531 15.369)">
        <path id="Path_1109" data-name="Path 1109" d="M10.962,2a8.962,8.962,0,1,0,8.962,8.962A8.962,8.962,0,0,0,10.962,2Zm0,16.643a7.681,7.681,0,1,1,7.681-7.681,7.681,7.681,0,0,1-7.681,7.681Z" transform="translate(-2 -2)" fill="#3ac3dd"/>
        <path id="Path_1110" data-name="Path 1110" d="M15.481,7H12.92A1.92,1.92,0,0,0,11,8.92V10.2h1.28V8.92a.64.64,0,0,1,.64-.64h2.56a.64.64,0,0,1,.64.64v.749a.64.64,0,0,1-.186.454l-1.812,1.812a1.92,1.92,0,0,0-.563,1.357v2.029h1.28V13.292a.64.64,0,0,1,.186-.454l1.812-1.812A1.92,1.92,0,0,0,17.4,9.669V8.92A1.92,1.92,0,0,0,15.481,7Z" transform="translate(-5.239 -3.799)" fill="#3ac3dd"/>
        <ellipse id="Ellipse_15-3" data-name="Ellipse 15" cx="1.5" cy="1" rx="1.5" ry="1" transform="translate(7.508 12.886)" fill="#3ac3dd"/>
      </g>
    </g>
    <g id="Group_64" data-name="Group 64" transform="translate(-241.886 4.398)">
      <g id="Group_51" data-name="Group 51" transform="translate(656.491 421.747)">
        <path id="Path_1111" data-name="Path 1111" d="M752.291,513.367c23.939-2.552,36.75-12.224,51.427-22.9s14.927-19.87,5.665-28.979-18.347-4.907-31.094-1.809c-17.677,4.3-31.932,14.891-45.667,16.889s-15.337-7.415-28.106-8.135-29.373,8.624-41.6,14.09c-2.786,10.976-2.962,21.319,1.872,32.058C691.14,514.489,728.352,515.919,752.291,513.367Z" transform="translate(-660.963 -455.961)" fill="#721930"/>
        <path id="Path_1112" data-name="Path 1112" d="M726.041,488.764c-2.267-1.775-4.736-2.261-7.366-3.3" transform="translate(-673.206 -462.221)" fill="none" stroke="#e14b7b" stroke-linecap="round" stroke-linejoin="round" stroke-width="1.26"/>
        <path id="Path_1113" data-name="Path 1113" d="M790.933,475.515c-5.472,1.74-9.972,2.958-15.27,4.313-9.679,2.475-19.127,5.361-28.574,8.655,2.653,1.829,4.389,4.155,6.512,6.593a26.935,26.935,0,0,0,5.394,4.3,26.576,26.576,0,0,1,2.862,2.622c2-.682,3.811-2.432,5.312-3.689,5.612-4.7,10.8-9.721,16.828-13.653s12.322-6.913,18.523-10.344A28.868,28.868,0,0,0,790.933,475.515Z" transform="translate(-679.234 -459.815)" fill="#c05275"/>
        <path id="Path_1114" data-name="Path 1114" d="M794.192,514.815s-7.711.469-6.842,9.484c1.305,13.544,8.234,8.758,8.234,8.758S797.059,518.17,794.192,514.815Z" transform="translate(-687.761 -468.447)" fill="#023c5d"/>
        <path id="Path_1115" data-name="Path 1115" d="M769.845,524.357c5.806-.236,7.475-.3,14.322-.41,5.446-.091,16.585-2.3,23.145-2.616,3.43-.165,11.6-3.776,13.519,1.01,1.357,3.38-3.1,10.1-8.561,10.831-4.541.6-11.86-1.2-17.432-.773-7.973.606-15.539,6.306-23.715,6.773C770.635,534.273,770.437,529.288,769.845,524.357Z" transform="translate(-684.062 -469.519)" fill="#ffc1aa"/>
        <g id="Group_47" data-name="Group 47" transform="translate(104.253 46.101)">
          <path id="Path_1116" data-name="Path 1116" d="M794.676,526.555a7.474,7.474,0,0,0-.366-4.655c-1.064-2.6-2.04-6.464,1.157-7.157,4.9-1.064,8.461,1.7,12.247,1.488s12.248-1.977,15.365-1.732,6.9,2.157,7.571,5.772,2.672,16.583-5.567,15.945-7.262-3.4-12.762-3.827-13.814,3.756-17.378,1.417C792.807,532.4,794.184,528.494,794.676,526.555Z" transform="translate(-793.289 -514.476)" fill="#025da6"/>
          <path id="Path_1117" data-name="Path 1117" d="M837.323,520.271c-.668-3.615-4.454-5.528-7.571-5.772a28.346,28.346,0,0,0-5.01.356,14.334,14.334,0,0,1,5.85,3.1c2.2,2.153,2.241,4.739,1.911,7.62-.307,2.684-.5,6.013-2.738,7.857a10.015,10.015,0,0,1-3.435,1.728,19.546,19.546,0,0,0,5.426,1.057C839.995,536.854,837.991,523.884,837.323,520.271Z" transform="translate(-799.962 -514.475)" fill="#023c5d"/>
          <path id="Path_1118" data-name="Path 1118" d="M830.472,517.932s3.793,1.671,2.772,7.1-.146,9.472-5.107,10.169" transform="translate(-800.682 -515.209)" fill="none" stroke="#21bce0" stroke-linecap="round" stroke-linejoin="round" stroke-width="1.26"/>
          <path id="Path_1119" data-name="Path 1119" d="M799.381,526.81s5.391-10.357,8.674-7.11S806.3,525.247,799.381,526.81Z" transform="translate(-794.582 -515.45)" fill="none" stroke="#21bce0" stroke-linecap="round" stroke-linejoin="round" stroke-width="2.259"/>
          <path id="Path_1120" data-name="Path 1120" d="M798.3,528.894s-7.506,9.624-1.994,11.639S799.589,533.827,798.3,528.894Z" transform="translate(-793.5 -517.534)" fill="none" stroke="#21bce0" stroke-linecap="round" stroke-linejoin="round" stroke-width="2.888"/>
          <path id="Path_1121" data-name="Path 1121" d="M822.427,522.807s-.567,5.084.39,7.548" transform="translate(-799.435 -516.243)" fill="none" stroke="#21bce0" stroke-linejoin="round" stroke-width="2"/>
          <path id="Path_1122" data-name="Path 1122" d="M818.656,523.4a16.538,16.538,0,0,0,0,6.709" transform="translate(-798.593 -516.369)" fill="none" stroke="#21bce0" stroke-linejoin="round" stroke-width="2"/>
          <path id="Path_1123" data-name="Path 1123" d="M814.407,523.4a18.307,18.307,0,0,0-.391,6.15" transform="translate(-797.662 -516.369)" fill="none" stroke="#21bce0" stroke-linejoin="round" stroke-width="2"/>
          <path id="Path_1124" data-name="Path 1124" d="M811.747,522.807a27.736,27.736,0,0,0,0,7.548" transform="translate(-797.149 -516.243)" fill="none" stroke="#21bce0" stroke-linejoin="round" stroke-width="2"/>
          <path id="Path_1125" data-name="Path 1125" d="M808.882,542.236s-3.632,1.226-3.942-1.406c0,0-.16-8.134-5.56-11.936,0,0,8.068,3.578,8.068,10.4s7.2,4.189,7.2,4.189" transform="translate(-794.582 -517.534)" fill="none" stroke="#21bce0" stroke-linecap="round" stroke-linejoin="round" stroke-width="1.26"/>
        </g>
        <path id="Path_1126" data-name="Path 1126" d="M752.235,533.751c4.177-4.894,6.222-10.165,5.293-16.613-9.015-6.857-16.538-15.023-24.758-22.936s-32.894-3.9-42.953-.274-34.3,21.2-20.331,32.96,38.028,11.528,53.677,2.87C731.494,535.244,743.036,534.263,752.235,533.751Z" transform="translate(-661.873 -463.104)" fill="#721930"/>
        <path id="Path_1127" data-name="Path 1127" d="M747.585,529.091c-6.887-1.109-14.631-2.7-20.358-6.534-4.748-3.176-4.439-9.156-9.043-11.221-6.351-2.85-16.624,5.341-24.374,9.35-9.821,5.08-19.17-12.852-22.256-23.064a49.11,49.11,0,0,1-2.006-12.075q-3.344,1.675-6.693,3.334a51.442,51.442,0,0,0,1.478,31.812c-.021-.013.1.024-.01-.02,1.256,2.756.566,3.886,3.769,5.884,15.939,9.939,37.477,11.866,54.3,2.231,8.046,5.717,19.822,4.546,28.94,4.1a30.46,30.46,0,0,0,2.348-3.144A46.111,46.111,0,0,1,747.585,529.091Z" transform="translate(-660.974 -462.238)" fill="#c05275"/>
        <path id="Path_1128" data-name="Path 1128" d="M754.659,535.977c-12.858.332-25.805-1.453-32.065-14.13s-25.662,6.374-33.988,8.6-20.812,3.492-23.926-2.829" transform="translate(-661.751 -469.023)" fill="none" stroke="#e14b7b" stroke-linecap="round" stroke-linejoin="round" stroke-width="1.26"/>
        <path id="Path_1129" data-name="Path 1129" d="M762.547,515.722c-8.241-6.248-15.787-14.322-23.069-21.434-8.849-8.644-32.487-3.134-43.067-.674" transform="translate(-668.483 -463.099)" fill="none" stroke="#e14b7b" stroke-linecap="round" stroke-linejoin="round" stroke-width="1.26"/>
        <path id="Path_1130" data-name="Path 1130" d="M735.84,537.928c-5.6-.375-8.937-4.919-11.552-9.343" transform="translate(-674.397 -471.368)" fill="none" stroke="#ab471c" stroke-linecap="round" stroke-linejoin="round" stroke-width="1.26"/>
        <path id="Path_1131" data-name="Path 1131" d="M814.475,469.315c-17.327,8.322-34.634,18.294-48.238,32.012" transform="translate(-683.297 -458.794)" fill="none" stroke="#e14b7b" stroke-linecap="round" stroke-linejoin="round" stroke-width="1.26"/>
        <g id="Group_50" data-name="Group 50" transform="translate(45.221 53.379)">
          <g id="Group_48" data-name="Group 48">
            <path id="Path_1132" data-name="Path 1132" d="M731.72,546.019s-9.99,4.919-10.508-7.622,2.282-13.619,5.69-14.525,9.018,2.3,10.563,4.232c1.259,1.572,1.864,7.01,2.143,10.975.186,2.639-1.76,5.069-4.8,6.014C733.754,545.418,732.677,545.745,731.72,546.019Z" transform="translate(-718.952 -523.714)" fill="#025da6"/>
            <path id="Path_1133" data-name="Path 1133" d="M725.239,529.472a15.894,15.894,0,0,1,2.1-5.737,4.925,4.925,0,0,0-1.03.141c-3.408.906-8.43,1.786-7.912,14.327.3,7.3,6.036,8.88,8.919,8.761A34.091,34.091,0,0,1,725.239,529.472Z" transform="translate(-718.361 -523.718)" fill="#023c5d"/>
          </g>
          <g id="Group_49" data-name="Group 49" transform="translate(7.883 2.744)">
            <path id="Path_1134" data-name="Path 1134" d="M742.7,532.613s-1.915-7.994-4.6-4.557S738.1,530.355,742.7,532.613Z" transform="translate(-730.204 -527.197)" fill="none" stroke="#21bce0" stroke-linecap="round" stroke-linejoin="round" stroke-width="2.103"/>
            <path id="Path_1135" data-name="Path 1135" d="M743.739,534.071s7.383,12.725,1.008,13.075C739.762,547.419,742.683,539.293,743.739,534.071Z" transform="translate(-731.243 -528.656)" fill="none" stroke="#21bce0" stroke-linecap="round" stroke-linejoin="round" stroke-width="2.688"/>
            <path id="Path_1136" data-name="Path 1136" d="M733.085,548.195s2.973,1.3,3.226-1.487c0,0,.132-8.611,4.551-12.636,0,0-6.6,3.787-6.6,11.013s-5.892,4.435-5.892,4.435" transform="translate(-728.367 -528.656)" fill="none" stroke="#21bce0" stroke-linecap="round" stroke-linejoin="round" stroke-width="1.173"/>
          </g>
          <path id="Path_1137" data-name="Path 1137" d="M737.666,532.388s.4,4.587.566,8.461" transform="translate(-722.456 -525.554)" fill="none" stroke="#21bce0" stroke-linejoin="round" stroke-width="2"/>
          <path id="Path_1138" data-name="Path 1138" d="M734.446,532.388s.4,4.587.565,8.461" transform="translate(-721.773 -525.554)" fill="none" stroke="#21bce0" stroke-linejoin="round" stroke-width="2"/>
          <path id="Path_1139" data-name="Path 1139" d="M728.24,525.8s-3.838,7.849.5,20.681" transform="translate(-720.124 -524.157)" fill="none" stroke="#21bce0" stroke-linecap="round" stroke-linejoin="round" stroke-width="1.26"/>
        </g>
      </g>
      <g id="Group_52" data-name="Group 52" transform="translate(714.667 354.693)">
        <path id="Path_1140" data-name="Path 1140" d="M734.8,370.85c12.606,5.845,17.656,13.033,17.777,27.215.05,5.879,2.315,23.182,3.448,28.893,1.67,8.419,2.692,17.988-2.815,22.824-3.484,3.059-5.932-.813-7.709-2.5-2.439-3.086-3.359-4.2-3.944-8.763-1.252-9.753-2.634-20.388-2.355-28.34.246-6.988,2.731-27.229-1.734-33.1L734.8,370.85" transform="translate(-734.804 -370.85)" fill="#ffc1aa"/>
        <path id="Path_1141" data-name="Path 1141" d="M739.276,408.723c4.584.514,12.365.017,16.789-1.761-.377-3.594,1.291-29.291-21.261-36.112l2.668,6.226C741.659,382.582,739.734,400.723,739.276,408.723Z" transform="translate(-734.804 -370.85)" fill="#62b092"/>
      </g>
      <g id="Group_53" data-name="Group 53" transform="translate(651.04 346.517)">
        <path id="Path_1142" data-name="Path 1142" d="M688.326,453.519c13.026.4,25.905,2.178,37.727,3.006-1.346-7.011-4.044-8.847-5.561-17.107s7.364-48.146,6.179-60.183c-.217-2.2-2.869-6.738-5.515-8.464a51.167,51.167,0,0,0-16.4-7.245c-6.982-1.657-29.5-4.98-35.389-1.58-10.443,6.028-10.578,27.444-12.457,42.814-1.528,12.5-3.346,31.961-2.506,41.464.99,11.2-3.213,18.522,3.827,18.195S681.748,453.315,688.326,453.519Z" transform="translate(-654.044 -360.473)" fill="#62b092"/>
        <path id="Path_1143" data-name="Path 1143" d="M700.764,361.5c-2.286,7.808.061,13.781,6.176,18.957,5.321,4.506,14.61,5.594,16.67-2.173,1.177-4.434.712-7.089-1.718-12.123a47.525,47.525,0,0,0-7.41-2.419A134.016,134.016,0,0,0,700.764,361.5Z" transform="translate(-663.773 -360.691)" fill="#54967d"/>
        <path id="Path_1144" data-name="Path 1144" d="M722.353,468.33s-16.576-5.691-25.942-2.876" transform="translate(-663.032 -382.579)" fill="none" stroke="#54967d" stroke-miterlimit="10" stroke-width="1"/>
        <path id="Path_1145" data-name="Path 1145" d="M666.719,441.929c.375-6.384,1.24-12.73,2.184-19.052,1.016-6.8,2.868-13.747,3.33-20.594.64-9.491-5.11-15.559-11.653-21.025-2.108,8.666-2.614,19.25-3.673,27.912-1.528,12.5-3.346,31.961-2.506,41.464.99,11.2-3.213,18.522,3.827,18.195,2.56-.119,6.37-1.621,10.495-3.473C665.825,458.132,666.284,449.324,666.719,441.929Z" transform="translate(-654.044 -364.882)" fill="#54967d"/>
      </g>
      <g id="Group_54" data-name="Group 54" transform="translate(692.811 386.565)">
        <path id="Path_1146" data-name="Path 1146" d="M735.9,416.279l-16.056-1.5-12.48,20.323q7.828.729,15.659,1.433C727.358,429.811,731.621,423.038,735.9,416.279Z" transform="translate(-707.127 -412.043)" fill="#463d3d"/>
        <path id="Path_1147" data-name="Path 1147" d="M739.226,415.541l-.149-2.741-16.055-1.5q.075,1.371.148,2.741Z" transform="translate(-710.448 -411.305)" fill="#463d3d"/>
        <path id="Path_1148" data-name="Path 1148" d="M719.636,411.3l-12.574,20.312q.122,1.377.242,2.752l12.48-20.323Q719.71,412.676,719.636,411.3Z" transform="translate(-707.062 -411.305)" fill="#7a6b6b"/>
      </g>
      <g id="Group_56" data-name="Group 56" transform="translate(639.886 348.407)">
        <g id="Group_55" data-name="Group 55" transform="translate(49.096 43.759)">
          <path id="Path_1149" data-name="Path 1149" d="M702.72,436.868a7.468,7.468,0,0,1,.348-6.227,16.889,16.889,0,0,1,7.085-5.914c2.1-.69,2.761-1,4.441-1.48a12.19,12.19,0,0,1,2.215-.5c.71-.065,1.472.139,1.342,1.108-.631,4.681,1.229,8.778-.808,13.985C717.07,438.543,704.363,441.29,702.72,436.868Z" transform="translate(-702.203 -419.332)" fill="#ffc1aa"/>
          <path id="Path_1150" data-name="Path 1150" d="M714.537,418.414c-5.01,3.309-8.208,7.508-8.421,13.6" transform="translate(-703.033 -418.414)" fill="none" stroke="#ffc7a7" stroke-linecap="round" stroke-linejoin="round" stroke-width="12.244"/>
          <path id="Path_1151" data-name="Path 1151" d="M718.408,439.4c5.126-.986,10.926.362,15.959,1.126" transform="translate(-705.641 -422.792)" fill="none" stroke="#ffc7a7" stroke-linecap="round" stroke-linejoin="round" stroke-width="6.525"/>
          <path id="Path_1152" data-name="Path 1152" d="M719.356,434.528c4.466-2.319,11.047-.766,15.642-.122" transform="translate(-705.842 -421.572)" fill="none" stroke="#ffc7a7" stroke-linecap="round" stroke-linejoin="round" stroke-width="6.525"/>
          <path id="Path_1153" data-name="Path 1153" d="M719.739,429.5c4.952-1.451,10.6-.943,15.662-.8" transform="translate(-705.923 -420.553)" fill="none" stroke="#ffc7a7" stroke-linecap="round" stroke-linejoin="round" stroke-width="6.525"/>
          <path id="Path_1154" data-name="Path 1154" d="M715.205,426.152c3.873-3.227,10.726-2.871,15.329-3.046" transform="translate(-704.962 -419.409)" fill="none" stroke="#ffc7a7" stroke-linecap="round" stroke-linejoin="round" stroke-width="6.525"/>
        </g>
        <path id="Path_1155" data-name="Path 1155" d="M689.676,416.279c-9.8,2.82-20.379,3.344-30.606,4.035,3.157-8.965,10.471-20.438,13.2-28.882s6.1-18.882-.854-26.031c-2.959-2.553-11.541-2.936-18.748,9.957-6.452,11.54-9.356,27.575-12.277,48.5-2.682,19.213,5,19.1,31.611,10.2,2.308-.772,15.421-6.977,20.163-8.533C692.815,425.316,691.48,416.928,689.676,416.279Z" transform="translate(-639.886 -363.107)" fill="#ffc1aa"/>
        <path id="Path_1156" data-name="Path 1156" d="M674.564,404.685c1.388-2.894,13.177-31.6-1.388-40.649-5.254-2.357-11.027-2.234-18.7,11.087a67.193,67.193,0,0,0-6.047,15.258C652.2,396.876,670.891,403.981,674.564,404.685Z" transform="translate(-641.699 -362.872)" fill="#62b092"/>
      </g>
      <g id="Group_57" data-name="Group 57" transform="translate(705.37 398.465)">
        <path id="Path_1157" data-name="Path 1157" d="M738.553,447.74c-4.259-2.693-10.855-2.007-15.55-1.965" transform="translate(-723.003 -430.495)" fill="none" stroke="#ffc7a7" stroke-linecap="round" stroke-linejoin="round" stroke-width="6.525"/>
        <path id="Path_1158" data-name="Path 1158" d="M738.752,441.9c-3.994-3.044-10.835-2.4-15.421-2.376" transform="translate(-723.073 -429.177)" fill="none" stroke="#ffc7a7" stroke-linecap="round" stroke-linejoin="round" stroke-width="6.525"/>
        <path id="Path_1159" data-name="Path 1159" d="M739.17,435.964c-4.005-3.061-10.838-2.416-15.443-2.4" transform="translate(-723.157 -427.914)" fill="none" stroke="#ffc7a7" stroke-linecap="round" stroke-linejoin="round" stroke-width="6.525"/>
        <path id="Path_1160" data-name="Path 1160" d="M744.167,433.9c-3.433-3.742-10.27-3.9-14.828-4.354" transform="translate(-724.347 -427.075)" fill="none" stroke="#ffc7a7" stroke-linecap="round" stroke-linejoin="round" stroke-width="6.525"/>
        <path id="Path_1161" data-name="Path 1161" d="M744.869,447.695c-1.517,3.065-.915,7.026-.444,10.311a16.654,16.654,0,0,0,8.381.281c1.087-4.2,2.141-8.459,3.156-12.642-1.851-.806-3.38-.964-3.854-3.456s.5-7.95-2.633-9.831a20.17,20.17,0,0,0-5.977-1.45c-1.711,3.5-3.426,9.193-3.077,12.615S742.365,447.377,744.869,447.695Z" transform="translate(-726.689 -427.364)" fill="#ffc1aa"/>
        <path id="Path_1162" data-name="Path 1162" d="M750.648,426.41c1.655,2.725,1.322,5.693.452,8.614" transform="translate(-728.868 -426.41)" fill="none" stroke="#ffc7a7" stroke-linecap="round" stroke-linejoin="round" stroke-width="8.094"/>
      </g>
      <g id="Group_63" data-name="Group 63" transform="translate(689.732 294.69)">
        <g id="Group_62" data-name="Group 62">
          <path id="Path_1163" data-name="Path 1163" d="M705.728,361.145s-4.993,9.276,9.989,13.659c8.9,1.626,3.744-8.887,3.744-8.887s.33-7.221,4.766-11.952c-.737-3.065-9.336-9.95-13.337-7.589C710.441,351.7,705.728,361.145,705.728,361.145Z" transform="translate(-703.531 -305.552)" fill="#ffc1aa"/>
          <path id="Path_1164" data-name="Path 1164" d="M720.738,365.015c-5.34-1.809-8.945-6.772-10.181-12.479a27.2,27.2,0,0,0,1.527-6.162c4-2.36,12.6,4.525,13.337,7.589C721.936,357.681,720.986,362.934,720.738,365.015Z" transform="translate(-704.724 -305.552)" fill="#ffa88a"/>
          <g id="Group_61" data-name="Group 61">
            <path id="Path_1165" data-name="Path 1165" d="M747.744,344.472c-1.763,2.166-4.2,3.118-5.449,2.123s-.819-3.556.948-5.717,4.2-3.1,5.439-2.111S749.5,342.31,747.744,344.472Z" transform="translate(-711.306 -303.957)" fill="#ffc1aa"/>
            <path id="Path_1166" data-name="Path 1166" d="M743.7,338.76s7.409-1.828,11.862-13.629c1.731-4.587,1.363-6.282,1.363-6.282l-8.6-1.762Z" transform="translate(-711.756 -299.441)" fill="#463d3d"/>
            <line id="Line_4" data-name="Line 4" x1="5.967" y1="2.807" transform="translate(34.557 33.657)" fill="none" stroke="#6b6ce9" stroke-miterlimit="10" stroke-width="1.881"/>
            <path id="Path_1167" data-name="Path 1167" d="M720,311.945c5.513-2.82,5-6.645,11.139-4.031.2.087.412.19.62.288.214.081.433.161.637.247,6.142,2.613,8.621,3.29,10.667,9.177,2.649,7.615-3.709,17.576-5.141,21.034-4.076,9.843-8.3,16.842-15.807,13.312-3.95-1.06-10.63-8.342-12.217-12.361s-3.038-7.97-1.188-13.188C709.964,322.894,716.556,313.707,720,311.945Z" transform="translate(-704.15 -297.31)" fill="#ffc1aa"/>
            <path id="Path_1168" data-name="Path 1168" d="M737.208,352.2a9.8,9.8,0,0,1-8.659-4.074,7.745,7.745,0,0,0,3.77,5.6A3.465,3.465,0,0,0,737.208,352.2Z" transform="translate(-708.542 -306.027)" fill="#572a28"/>
            <path id="Path_1169" data-name="Path 1169" d="M735.275,337.181c-.279.592-.819.924-1.208.741s-.477-.811-.2-1.4.819-.924,1.208-.742S735.553,336.588,735.275,337.181Z" transform="translate(-709.636 -303.396)" fill="#572a28"/>
            <path id="Path_1170" data-name="Path 1170" d="M746.383,340.92c-.252.537-.742.837-1.094.671s-.432-.734-.18-1.27.741-.836,1.093-.67S746.635,340.384,746.383,340.92Z" transform="translate(-712.024 -304.219)" fill="#572a28"/>
            <path id="Path_1171" data-name="Path 1171" d="M738.515,343.347c-.36,1.978,1.055,2.11.837,3.021a1.732,1.732,0,0,1-2.366.911" transform="translate(-710.331 -305.012)" fill="none" stroke="#572a28" stroke-linecap="round" stroke-linejoin="round" stroke-width="1.129"/>
            <path id="Path_1172" data-name="Path 1172" d="M735.4,331.259s-1.99-2.221-5.409-.485" transform="translate(-708.848 -302.204)" fill="none" stroke="#000" stroke-linecap="round" stroke-linejoin="round" stroke-width="2.023"/>
            <path id="Path_1173" data-name="Path 1173" d="M746.042,334.354c.92-.7,2.476-.034,3.08,1.417" transform="translate(-712.253 -303.045)" fill="none" stroke="#000" stroke-linecap="round" stroke-linejoin="round" stroke-width="2.023"/>
            <path id="Path_1174" data-name="Path 1174" d="M714.728,298.621c0-3.366,3.392-3.743,5.94-3.889a36.47,36.47,0,0,1,11.432,1.459c7.036,1.895,19.248,8.285,17.632,17.9,3.255,2.808,4.733,5.823,2.82,6.951-.485.363-6.014-1.5-7.154-1.888-5.7-1.926-18.356-10.738-25.617-1.584,0,0-.383,5.77-8.183,7.37l-1.673-.788-.972-3.608-3.263-.41s-.6-9.607,2.194-16.778C709,300.489,710.46,297.709,714.728,298.621Z" transform="translate(-703.68 -294.69)" fill="#463d3d"/>
            <path id="Path_1175" data-name="Path 1175" d="M757.4,312.436s9.766-2.556,7.63-6.639c-1.265-2.418-11.161-1.694-16.646-4.289S757.4,312.436,757.4,312.436Z" transform="translate(-712.486 -296.066)" fill="#463d3d"/>
            <path id="Path_1176" data-name="Path 1176" d="M755.182,318.322s12.661,2.517,12.127-2.06c-.315-2.71-7.429-2.917-9.337-5.168S755.182,318.322,755.182,318.322Z" transform="translate(-714.192 -298.097)" fill="#463d3d"/>
            <g id="Group_58" data-name="Group 58" transform="translate(10.787 8.18)">
              <path id="Path_1177" data-name="Path 1177" d="M717,307.744c-.664,2.12.832,4.476,3.341,5.262s5.082-.295,5.747-2.415-.832-4.476-3.341-5.262S717.668,305.624,717,307.744Z" transform="translate(-716.846 -305.072)" fill="#463d3d"/>
            </g>
            <g id="Group_59" data-name="Group 59" transform="translate(0.013 23.548)">
              <path id="Path_1178" data-name="Path 1178" d="M727.968,338.455l5.48,1.439a2.813,2.813,0,0,0,3.167-1.58l2.171-4.874a2.2,2.2,0,0,0-1.127-3l-5.187-2.1a2.84,2.84,0,0,0-3.626,1.426l-2.465,5.533A2.251,2.251,0,0,0,727.968,338.455Z" transform="translate(-708.05 -325.334)" fill="none" stroke="#6b6ce9" stroke-linecap="round" stroke-linejoin="round" stroke-width="2.033"/>
              <path id="Path_1179" data-name="Path 1179" d="M747.865,344.4l-4.526-1.364a2.061,2.061,0,0,1-1.126-2.927l2.175-4.975a2.317,2.317,0,0,1,2.884-1.351l4.176,1.652a2.036,2.036,0,0,1,.97,2.7l-1.825,4.688A2.371,2.371,0,0,1,747.865,344.4Z" transform="translate(-711.407 -326.502)" fill="none" stroke="#6b6ce9" stroke-linecap="round" stroke-linejoin="round" stroke-width="1.881"/>
              <path id="Path_1180" data-name="Path 1180" d="M723.149,330.849l-13.6-5.779s-5.894-2.969-6.374,5.694" transform="translate(-703.171 -324.579)" fill="none" stroke="#6b6ce9" stroke-linecap="round" stroke-linejoin="round" stroke-width="2.033"/>
              <line id="Line_5" data-name="Line 5" x2="2.054" y2="0.83" transform="translate(29.939 9.895)" fill="none" stroke="#6b6ce9" stroke-linecap="round" stroke-linejoin="round" stroke-width="1.881"/>
            </g>
            <g id="Group_60" data-name="Group 60" transform="translate(0 23.539)">
              <path id="Path_1181" data-name="Path 1181" d="M711.565,326.937a5.433,5.433,0,0,0-2.024-1.87c-2.058-.968-4.23-.663-5.523,2.085s-1.465,5.388,1.814,7.731a3.867,3.867,0,0,0,2.661.839A64.384,64.384,0,0,0,711.565,326.937Z" transform="translate(-703.154 -324.567)" fill="#ffc1aa"/>
              <path id="Path_1182" data-name="Path 1182" d="M710.518,328.438c-1.281-1.454-3.826-1.435-4.61,1.635" transform="translate(-703.738 -325.189)" fill="none" stroke="#572a28" stroke-linecap="round" stroke-linejoin="round" stroke-width="1.138"/>
            </g>
          </g>
        </g>
      </g>
    </g>
  </g>
</svg>
